<?xml version="1.0" standalone="no"?>
<!DOCTYPE svg PUBLIC "-//W3C//DTD SVG 20010904//EN"
 "http://www.w3.org/TR/2001/REC-SVG-20010904/DTD/svg10.dtd">
<svg version="1.0" xmlns="http://www.w3.org/2000/svg"
 width="512.000000pt" height="512.000000pt" viewBox="0 0 512.000000 512.000000"
 preserveAspectRatio="xMidYMid meet">
<metadata>
Created by potrace 1.11, written by Peter Selinger 2001-2013
</metadata>
<g transform="translate(0.000000,512.000000) scale(0.100000,-0.100000)"
fill="#000000" stroke="none">
<path d="M2008 5094 c-73 -22 -119 -74 -183 -210 -32 -66 -72 -152 -91 -191
-32 -66 -42 -78 -67 -74 -4 1 -45 4 -90 6 -45 3 -120 8 -167 11 -148 11 -185
9 -230 -15 -71 -37 -112 -89 -127 -161 -9 -44 -8 -79 1 -210 3 -36 7 -108 11
-160 l5 -95 -202 -100 c-184 -91 -206 -104 -239 -148 -19 -26 -36 -53 -36 -60
-1 -7 -4 -31 -8 -54 -8 -49 14 -126 46 -167 11 -14 18 -26 15 -26 -3 0 4 -11
15 -24 12 -14 27 -33 33 -44 19 -32 95 -146 112 -167 42 -52 41 -56 -37 -171
-40 -60 -77 -110 -81 -112 -4 -2 -8 -8 -8 -13 0 -5 -13 -28 -30 -51 -16 -22
-30 -47 -30 -55 0 -7 -4 -13 -8 -13 -15 0 -31 -73 -28 -121 4 -54 26 -120 38
-113 4 3 8 0 8 -6 0 -25 56 -62 206 -136 87 -43 162 -77 167 -76 4 1 7 -2 7
-8 0 -6 3 -10 8 -9 4 1 17 -2 30 -6 26 -8 26 -9 6 -280 -16 -207 -4 -260 76
-328 72 -62 98 -64 415 -41 163 13 143 21 195 -81 25 -50 66 -137 93 -193 26
-56 53 -102 59 -102 6 0 8 -3 5 -6 -9 -10 52 -62 93 -80 45 -20 135 -19 180 1
43 19 73 37 81 49 4 5 15 6 24 2 12 -4 14 -10 8 -19 -5 -7 -9 -170 -8 -369 0
-197 -3 -358 -7 -358 -5 0 -8 11 -8 25 0 32 -45 165 -77 230 -45 92 -114 177
-218 272 -83 75 -256 158 -420 199 -16 4 -32 8 -35 9 -3 1 -30 5 -60 9 -30 5
-64 10 -75 12 -11 2 -65 6 -120 9 -55 3 -145 7 -200 10 -112 6 -117 6 -270 31
-16 3 -57 12 -90 21 -33 8 -64 16 -70 17 -5 1 -16 5 -22 9 -7 5 -13 5 -13 1 0
-3 -7 -1 -15 6 -8 7 -15 9 -15 5 0 -4 -6 -3 -12 2 -11 8 -40 19 -78 28 -3 0
-15 6 -27 13 -13 7 -23 9 -23 5 0 -4 -4 -3 -8 2 -6 9 -102 53 -126 58 -5 1
-18 9 -28 17 -10 8 -22 15 -26 15 -4 0 -23 10 -43 23 -20 12 -38 22 -41 22 -5
0 0 -103 6 -135 3 -11 5 -20 6 -20 1 0 3 -18 4 -40 2 -22 10 -66 19 -98 8 -31
13 -57 10 -57 -3 0 0 -7 7 -15 7 -8 10 -15 7 -15 -5 0 12 -58 30 -100 3 -8 7
-19 8 -25 7 -29 121 -252 136 -265 3 -3 19 -25 36 -50 78 -114 233 -246 368
-313 81 -40 96 -47 150 -65 17 -6 39 -13 50 -17 11 -4 27 -9 35 -10 8 -2 26
-6 40 -10 14 -4 36 -9 50 -10 14 -2 25 -4 25 -5 0 -2 24 -5 135 -16 41 -4 283
-8 537 -8 253 -1 459 -4 457 -8 -2 -3 1 -8 7 -10 5 -2 11 -15 13 -28 5 -41 27
-101 52 -138 13 -19 24 -31 24 -26 0 5 7 -1 15 -13 36 -52 182 -77 281 -48 46
13 70 28 107 67 29 29 46 55 43 64 -3 8 -2 14 3 14 9 0 24 42 25 72 1 9 4 19
8 23 4 4 5 12 2 18 -3 9 114 12 458 12 646 1 696 7 955 103 172 65 351 213
482 401 36 51 130 239 123 245 -3 3 -1 6 5 6 5 0 10 6 11 13 2 22 7 42 16 55
4 7 6 16 2 19 -3 3 2 12 10 20 8 8 12 19 9 24 -4 5 -3 15 2 22 4 6 8 17 9 22
2 9 7 35 19 88 3 12 7 33 10 47 10 44 25 210 19 210 -9 0 -100 -55 -106 -64
-4 -6 -8 -8 -8 -3 0 4 -15 0 -32 -10 -18 -9 -35 -18 -38 -18 -6 -2 -47 -19
-109 -46 -27 -11 -55 -22 -62 -23 -8 -2 -27 -9 -44 -15 -16 -7 -37 -14 -45
-17 -8 -2 -33 -8 -55 -14 -78 -22 -116 -30 -153 -36 -46 -7 -81 -13 -108 -18
-12 -3 -82 -7 -155 -11 -323 -14 -421 -27 -564 -73 -82 -26 -223 -87 -235
-101 -3 -3 -18 -13 -34 -22 -50 -28 -141 -112 -187 -172 -24 -31 -50 -64 -56
-71 -7 -8 -13 -18 -13 -21 0 -4 -8 -19 -18 -33 -19 -27 -70 -148 -79 -187 -2
-11 -7 -39 -10 -62 -13 -101 -18 -12 -17 319 1 194 2 359 3 366 1 9 16 5 47
-13 55 -31 140 -36 194 -13 75 32 98 64 202 275 96 194 101 203 127 199 49 -8
265 -20 361 -21 79 0 102 4 137 22 65 35 112 107 118 180 2 17 6 36 10 42 3 6
2 11 -2 11 -5 0 -9 28 -10 63 -3 90 -13 209 -19 218 -3 5 1 9 8 9 8 0 9 3 3 8
-6 4 -11 26 -11 50 l-2 43 87 41 c47 23 89 41 94 40 4 -1 7 3 7 8 0 6 5 10 11
10 27 0 202 97 229 127 35 38 59 89 55 116 -2 9 0 17 4 17 4 0 7 9 7 20 0 11
-4 20 -8 20 -4 0 -5 7 -2 15 4 8 3 23 -2 33 -4 9 -8 20 -8 24 -1 4 -56 90
-124 191 l-123 185 33 48 c18 27 36 51 40 52 4 2 8 7 8 12 0 8 87 141 110 167
5 7 15 24 22 38 6 14 14 25 18 25 4 0 11 16 14 35 4 19 11 35 16 35 6 0 6 9 0
24 -6 16 -5 26 1 28 22 7 -22 109 -69 158 -26 28 -51 50 -56 50 -4 0 -88 39
-186 87 l-178 88 5 65 c2 36 5 91 6 122 2 32 6 60 10 64 4 4 2 13 -4 21 -6 7
-7 13 -2 13 5 0 9 32 9 71 -1 39 2 73 6 75 8 5 -32 107 -44 112 -4 2 -8 10 -8
18 0 8 -11 20 -25 26 -14 6 -25 15 -25 19 0 12 -87 42 -99 34 -6 -3 -11 -2
-11 3 0 6 -15 8 -33 7 -19 -2 -74 -6 -123 -9 -218 -14 -260 -17 -270 -21 -12
-3 -21 14 -137 252 -66 134 -96 183 -116 183 -6 0 -11 4 -11 10 0 30 -147 57
-205 37 -24 -9 -170 -98 -210 -130 -5 -4 -49 -34 -96 -66 l-85 -58 -55 36
c-30 20 -63 44 -73 53 -11 10 -25 18 -31 18 -7 0 -20 9 -30 20 -10 11 -22 20
-27 20 -5 0 -32 17 -61 38 -100 74 -171 92 -259 66z"/>
</g>
</svg>
